<svg width="24" height="24" viewBox="0 0 24 24" fill="none" xmlns="http://www.w3.org/2000/svg">
    <path d="M18.4564 5H6.1525L4 8.91314L12.3038 18.4793L20.6076 8.91314L18.4564 5ZM17.8894 6.05353L19.1505 8.34617H16.8851L17.8894 6.05353ZM16.8164 6.00424L15.8965 8.10223L13.5986 6.00424H16.8164ZM14.6742 8.33967H9.93331L12.3038 6.17551L14.6742 8.33967ZM11.0102 6.00424L8.71239 8.10223L7.79249 6.00424H11.0102ZM6.71819 6.05353L7.72243 8.34617H5.45705L6.71819 6.05353ZM5.70876 9.3491H8.16227L10.6664 15.058L5.70876 9.3491ZM9.25863 9.3491H15.3489L12.3038 16.297L9.25863 9.3491ZM13.9412 15.058L16.4453 9.3491H18.8975L13.9412 15.058Z" fill="#723BCC"/>
</svg>